<svg width="114" height="32" fill="none" xmlns="http://www.w3.org/2000/svg"><path d="M43.116 13.762h1.666v2.31h-1.568V21H40.05v-4.928H39v-2.31h1.05v-.042c0-.999.299-1.787.896-2.366.597-.588 1.437-.882 2.52-.882.355 0 .7.033 1.036.098.336.065.616.159.84.28l-.756 2.198a1.717 1.717 0 0 0-.714-.182.731.731 0 0 0-.56.224c-.13.14-.196.36-.196.658v.014Zm6.676.406c.56-.644 1.386-.966 2.478-.966v2.8a4.803 4.803 0 0 0-.7-.056c-1.083 0-1.624.55-1.624 1.652V21h-3.164v-7.658h3.01v.826Zm7.352 6.972c-.849 0-1.614-.168-2.296-.504a4.012 4.012 0 0 1-1.582-1.414 3.783 3.783 0 0 1-.574-2.058c0-.765.192-1.447.574-2.044a3.876 3.876 0 0 1 1.582-1.414c.682-.336 1.447-.504 2.296-.504.86 0 1.624.168 2.296.504.682.336 1.21.807 1.582 1.414.383.597.574 1.279.574 2.044 0 .765-.19 1.451-.574 2.058-.373.597-.9 1.069-1.582 1.414-.672.336-1.437.504-2.296.504Zm0-2.464c.364 0 .663-.13.896-.392.234-.27.35-.644.35-1.12 0-.476-.116-.845-.35-1.106a1.147 1.147 0 0 0-.896-.392c-.364 0-.662.13-.896.392-.233.261-.35.63-.35 1.106 0 .476.117.85.35 1.12.234.261.532.392.896.392Zm10.763-5.474c.942 0 1.698.285 2.268.854.578.57.868 1.428.868 2.576V21h-3.164v-3.822c0-.877-.313-1.316-.938-1.316-.355 0-.644.126-.868.378-.215.243-.322.63-.322 1.162V21h-3.164v-7.658h3.01v.756a2.92 2.92 0 0 1 1.036-.672 3.55 3.55 0 0 1 1.274-.224Zm10.152 7.532c-.476.27-1.125.406-1.946.406-1.073 0-1.9-.257-2.478-.77-.579-.523-.868-1.302-.868-2.338v-1.96h-1.05v-2.31h1.05V11.62h3.164v2.142h1.568v2.31H75.93v1.932c0 .233.06.415.182.546a.62.62 0 0 0 .476.196c.27 0 .508-.07.714-.21l.756 2.198Zm3.793.406c-.653 0-1.297-.07-1.932-.21-.634-.14-1.148-.322-1.54-.546l.868-2.086c.355.215.775.383 1.26.504.486.121.957.182 1.414.182.364 0 .616-.028.756-.084.15-.065.224-.159.224-.28 0-.121-.093-.205-.28-.252a7.007 7.007 0 0 0-.882-.14 12.608 12.608 0 0 1-1.596-.28 2.604 2.604 0 0 1-1.162-.686c-.326-.336-.49-.817-.49-1.442 0-.495.15-.938.448-1.33.299-.392.742-.705 1.33-.938.598-.233 1.312-.35 2.142-.35a8.47 8.47 0 0 1 1.694.168c.56.103 1.036.257 1.428.462l-.868 2.086a4.479 4.479 0 0 0-2.212-.56c-.69 0-1.036.121-1.036.364 0 .121.094.21.28.266.187.047.48.093.882.14.626.075 1.153.173 1.582.294.439.121.822.35 1.148.686.336.336.504.817.504 1.442 0 .476-.15.91-.448 1.302-.298.392-.746.705-1.344.938-.597.233-1.32.35-2.17.35Zm4.92-7.798h3.164V21h-3.164v-7.658Zm1.582-.616c-.57 0-1.031-.15-1.386-.448a1.49 1.49 0 0 1-.518-1.162c0-.467.173-.85.518-1.148.355-.308.817-.462 1.386-.462.579 0 1.04.145 1.386.434.346.29.518.663.518 1.12 0 .485-.172.887-.518 1.204-.345.308-.807.462-1.386.462Zm11.455-2.114V21h-3.01v-.63c-.458.513-1.158.77-2.1.77a3.761 3.761 0 0 1-1.862-.476 3.597 3.597 0 0 1-1.344-1.4c-.327-.607-.49-1.307-.49-2.1 0-.793.163-1.489.49-2.086.336-.607.784-1.069 1.344-1.386a3.673 3.673 0 0 1 1.862-.49c.849 0 1.498.22 1.946.658v-3.248h3.164Zm-4.354 8.064c.364 0 .662-.13.896-.392.233-.27.35-.644.35-1.12 0-.476-.117-.845-.35-1.106a1.147 1.147 0 0 0-.896-.392c-.364 0-.663.13-.896.392-.234.261-.35.63-.35 1.106 0 .476.116.85.35 1.12.233.261.532.392.896.392Zm13.903-1.512c0 .047-.014.294-.042.742h-5.32c.112.29.298.513.56.672.261.15.588.224.98.224.336 0 .616-.042.84-.126.233-.084.485-.229.756-.434l1.652 1.666c-.747.821-1.862 1.232-3.346 1.232-.924 0-1.736-.168-2.436-.504-.7-.345-1.242-.821-1.624-1.428a3.749 3.749 0 0 1-.574-2.044c0-.765.186-1.447.56-2.044a3.91 3.91 0 0 1 1.554-1.414c.662-.336 1.404-.504 2.226-.504.774 0 1.479.154 2.114.462a3.59 3.59 0 0 1 1.526 1.358c.382.597.574 1.311.574 2.142Zm-4.186-1.806c-.327 0-.598.089-.812.266-.215.177-.355.43-.42.756h2.464c-.066-.317-.206-.565-.42-.742-.215-.187-.486-.28-.812-.28Zm6.612 5.782c-.532 0-.975-.168-1.33-.504-.345-.345-.518-.784-.518-1.316s.173-.961.518-1.288c.355-.336.798-.504 1.33-.504s.971.168 1.316.504c.355.327.532.756.532 1.288s-.177.97-.532 1.316c-.345.336-.784.504-1.316.504Z" fill="#2824D5"/><circle cx="16" cy="16" r="16" fill="#2824D5"/><path d="M9 11a1 1 0 0 1 1-1h12a1 1 0 1 1 0 2H10a1 1 0 0 1-1-1Zm2 5a1 1 0 0 1 1-1h12a.999.999 0 1 1 0 2H12a1 1 0 0 1-1-1Zm11 6H10a1 1 0 1 1 0-2h12a.999.999 0 1 1 0 2Z" fill="#fff"/></svg>