<svg width="163" height="164" fill="none" xmlns="http://www.w3.org/2000/svg"><g clip-path="url(#Usuário__a)"><path fill="#2824d5" d="M0 0h163v164H0z"/><path d="M141 166.5c0 32.861-26.639 59.5-59.5 59.5-32.86 0-59.5-26.639-59.5-59.5 0-32.861 26.64-59.5 59.5-59.5 32.861 0 59.5 26.639 59.5 59.5Z" fill="#fff"/><circle cx="81.5" cy="64.5" r="29.5" fill="#fff"/><path d="M0 147.5C95.5 164 98.5 143 164 153v11H0v-16.5Z" fill="#2824d5"/><path d="M77 87.5c4.047 1.687 6.252 1.739 10 0" stroke="#504CF9" stroke-opacity=".9" stroke-linecap="round"/></g><defs><clipPath id="Usuário__a"><path fill="#fff" d="M0 0h163v164H0z"/></clipPath></defs></svg>